<mxfile host="app.diagrams.net" modified="2023-05-12T14:46:18.919Z" agent="Mozilla/5.0 (X11; Linux x86_64; rv:102.0) Gecko/20100101 Firefox/102.0" version="21.2.9" etag="jFOH4GfUjHenSRRViUTG" type="github">
  <diagram id="C5RBs43oDa-KdzZeNtuy" name="Page-1">
    <mxGraphModel dx="1195" dy="665" grid="1" gridSize="10" guides="1" tooltips="1" connect="1" arrows="1" fold="1" page="1" pageScale="1" pageWidth="827" pageHeight="1169" math="0" shadow="0">
      <root>
        <mxCell id="WIyWlLk6GJQsqaUBKTNV-0" />
        <mxCell id="WIyWlLk6GJQsqaUBKTNV-1" parent="WIyWlLk6GJQsqaUBKTNV-0" />
        <mxCell id="o9_Wq7FEoAlSPozMiBwq-0" value="arr - массив строк&lt;br&gt;len - длина массива arr" style="text;html=1;strokeColor=none;fillColor=none;align=center;verticalAlign=middle;whiteSpace=wrap;rounded=0;" vertex="1" parent="WIyWlLk6GJQsqaUBKTNV-1">
          <mxGeometry x="115" y="50" width="170" height="40" as="geometry" />
        </mxCell>
        <mxCell id="o9_Wq7FEoAlSPozMiBwq-1" value="" style="edgeStyle=orthogonalEdgeStyle;rounded=0;orthogonalLoop=1;jettySize=auto;html=1;" edge="1" parent="WIyWlLk6GJQsqaUBKTNV-1" source="o9_Wq7FEoAlSPozMiBwq-2" target="o9_Wq7FEoAlSPozMiBwq-4">
          <mxGeometry relative="1" as="geometry" />
        </mxCell>
        <mxCell id="o9_Wq7FEoAlSPozMiBwq-2" value="Начало" style="ellipse;whiteSpace=wrap;html=1;aspect=fixed;" vertex="1" parent="WIyWlLk6GJQsqaUBKTNV-1">
          <mxGeometry x="160" y="100" width="80" height="80" as="geometry" />
        </mxCell>
        <mxCell id="o9_Wq7FEoAlSPozMiBwq-50" value="" style="edgeStyle=orthogonalEdgeStyle;rounded=0;orthogonalLoop=1;jettySize=auto;html=1;" edge="1" parent="WIyWlLk6GJQsqaUBKTNV-1" source="o9_Wq7FEoAlSPozMiBwq-4" target="o9_Wq7FEoAlSPozMiBwq-49">
          <mxGeometry relative="1" as="geometry" />
        </mxCell>
        <mxCell id="o9_Wq7FEoAlSPozMiBwq-4" value="вызваем функцию insertion_sort_vowel, которая сортирует arr в алфавитном порядке,  &lt;font style=&quot;font-size: 12px;&quot;&gt;и по убыванию&amp;nbsp; кол-ва гласных букв&lt;br role=&quot;presentation&quot;&gt;&lt;/font&gt;" style="rounded=1;whiteSpace=wrap;html=1;" vertex="1" parent="WIyWlLk6GJQsqaUBKTNV-1">
          <mxGeometry x="120" y="210" width="160" height="120" as="geometry" />
        </mxCell>
        <mxCell id="o9_Wq7FEoAlSPozMiBwq-22" value="&lt;span style=&quot;font-family: ui-monospace, SFMono-Regular, &amp;quot;SF Mono&amp;quot;, Menlo, Consolas, &amp;quot;Liberation Mono&amp;quot;, monospace; font-size: 12px; font-style: normal; font-variant-ligatures: normal; font-variant-caps: normal; font-weight: 400; letter-spacing: normal; orphans: 2; text-align: start; text-indent: 0px; text-transform: none; widows: 2; word-spacing: 0px; -webkit-text-stroke-width: 0px; background-color: rgb(255, 255, 255); text-decoration-thickness: initial; text-decoration-style: initial; text-decoration-color: initial; float: none; display: inline !important;&quot;&gt;Функция insertion_sort_vowel&lt;/span&gt;" style="text;whiteSpace=wrap;html=1;" vertex="1" parent="WIyWlLk6GJQsqaUBKTNV-1">
          <mxGeometry x="490" y="50" width="160" height="40" as="geometry" />
        </mxCell>
        <mxCell id="o9_Wq7FEoAlSPozMiBwq-23" value="" style="edgeStyle=orthogonalEdgeStyle;rounded=0;orthogonalLoop=1;jettySize=auto;html=1;" edge="1" parent="WIyWlLk6GJQsqaUBKTNV-1" target="o9_Wq7FEoAlSPozMiBwq-25">
          <mxGeometry relative="1" as="geometry">
            <mxPoint x="566.87" y="320" as="sourcePoint" />
          </mxGeometry>
        </mxCell>
        <mxCell id="o9_Wq7FEoAlSPozMiBwq-24" value="" style="edgeStyle=orthogonalEdgeStyle;rounded=0;orthogonalLoop=1;jettySize=auto;html=1;" edge="1" parent="WIyWlLk6GJQsqaUBKTNV-1" source="o9_Wq7FEoAlSPozMiBwq-25" target="o9_Wq7FEoAlSPozMiBwq-27">
          <mxGeometry relative="1" as="geometry" />
        </mxCell>
        <mxCell id="o9_Wq7FEoAlSPozMiBwq-25" value="x = arr[i]" style="shape=parallelogram;perimeter=parallelogramPerimeter;whiteSpace=wrap;html=1;fixedSize=1;rounded=1;" vertex="1" parent="WIyWlLk6GJQsqaUBKTNV-1">
          <mxGeometry x="506.87" y="350" width="120" height="60" as="geometry" />
        </mxCell>
        <mxCell id="o9_Wq7FEoAlSPozMiBwq-26" value="" style="edgeStyle=orthogonalEdgeStyle;rounded=0;orthogonalLoop=1;jettySize=auto;html=1;" edge="1" parent="WIyWlLk6GJQsqaUBKTNV-1" source="o9_Wq7FEoAlSPozMiBwq-27" target="o9_Wq7FEoAlSPozMiBwq-35">
          <mxGeometry relative="1" as="geometry" />
        </mxCell>
        <mxCell id="o9_Wq7FEoAlSPozMiBwq-27" value="j = i - 1" style="shape=parallelogram;perimeter=parallelogramPerimeter;whiteSpace=wrap;html=1;fixedSize=1;rounded=1;" vertex="1" parent="WIyWlLk6GJQsqaUBKTNV-1">
          <mxGeometry x="506.87" y="430" width="120" height="60" as="geometry" />
        </mxCell>
        <mxCell id="o9_Wq7FEoAlSPozMiBwq-28" value="" style="edgeStyle=orthogonalEdgeStyle;rounded=0;orthogonalLoop=1;jettySize=auto;html=1;entryX=0.5;entryY=0;entryDx=0;entryDy=0;" edge="1" parent="WIyWlLk6GJQsqaUBKTNV-1" source="o9_Wq7FEoAlSPozMiBwq-29" target="o9_Wq7FEoAlSPozMiBwq-34">
          <mxGeometry relative="1" as="geometry">
            <Array as="points">
              <mxPoint x="429.84000000000003" y="280" />
            </Array>
          </mxGeometry>
        </mxCell>
        <mxCell id="o9_Wq7FEoAlSPozMiBwq-29" value="от i до size, шаг 1" style="rhombus;whiteSpace=wrap;html=1;" vertex="1" parent="WIyWlLk6GJQsqaUBKTNV-1">
          <mxGeometry x="476.87" y="240" width="180" height="80" as="geometry" />
        </mxCell>
        <mxCell id="o9_Wq7FEoAlSPozMiBwq-30" value="" style="edgeStyle=orthogonalEdgeStyle;rounded=0;orthogonalLoop=1;jettySize=auto;html=1;" edge="1" parent="WIyWlLk6GJQsqaUBKTNV-1" source="o9_Wq7FEoAlSPozMiBwq-31" target="o9_Wq7FEoAlSPozMiBwq-33">
          <mxGeometry relative="1" as="geometry" />
        </mxCell>
        <mxCell id="o9_Wq7FEoAlSPozMiBwq-31" value="Начало" style="rounded=1;whiteSpace=wrap;html=1;fontSize=12;glass=0;strokeWidth=1;shadow=0;" vertex="1" parent="WIyWlLk6GJQsqaUBKTNV-1">
          <mxGeometry x="506.88" y="100" width="120" height="40" as="geometry" />
        </mxCell>
        <mxCell id="o9_Wq7FEoAlSPozMiBwq-32" value="" style="edgeStyle=orthogonalEdgeStyle;rounded=0;orthogonalLoop=1;jettySize=auto;html=1;" edge="1" parent="WIyWlLk6GJQsqaUBKTNV-1" source="o9_Wq7FEoAlSPozMiBwq-33" target="o9_Wq7FEoAlSPozMiBwq-29">
          <mxGeometry relative="1" as="geometry" />
        </mxCell>
        <mxCell id="o9_Wq7FEoAlSPozMiBwq-33" value="&lt;div style=&quot;text-align: start;&quot;&gt;&lt;font face=&quot;ui-monospace, SFMono-Regular, SF Mono, Menlo, Consolas, Liberation Mono, monospace&quot; color=&quot;#24292f&quot;&gt;Получаем строку arr &lt;br&gt;&lt;/font&gt;&lt;/div&gt;&lt;div style=&quot;text-align: start;&quot;&gt;&lt;font face=&quot;ui-monospace, SFMono-Regular, SF Mono, Menlo, Consolas, Liberation Mono, monospace&quot; color=&quot;#24292f&quot;&gt;&lt;span style=&quot;background-color: rgb(255, 255, 255);&quot;&gt;и его размер size&lt;/span&gt;&lt;/font&gt;&lt;/div&gt;" style="shape=parallelogram;perimeter=parallelogramPerimeter;whiteSpace=wrap;html=1;fixedSize=1;rounded=1;" vertex="1" parent="WIyWlLk6GJQsqaUBKTNV-1">
          <mxGeometry x="474.37" y="160" width="184.99" height="60" as="geometry" />
        </mxCell>
        <mxCell id="o9_Wq7FEoAlSPozMiBwq-34" value="Конец" style="rounded=1;whiteSpace=wrap;html=1;" vertex="1" parent="WIyWlLk6GJQsqaUBKTNV-1">
          <mxGeometry x="370" y="330" width="120" height="60" as="geometry" />
        </mxCell>
        <mxCell id="o9_Wq7FEoAlSPozMiBwq-35" value="А" style="ellipse;whiteSpace=wrap;html=1;rounded=1;" vertex="1" parent="WIyWlLk6GJQsqaUBKTNV-1">
          <mxGeometry x="526.87" y="515" width="80" height="80" as="geometry" />
        </mxCell>
        <mxCell id="o9_Wq7FEoAlSPozMiBwq-36" value="" style="edgeStyle=orthogonalEdgeStyle;rounded=0;orthogonalLoop=1;jettySize=auto;html=1;exitX=0.5;exitY=1;exitDx=0;exitDy=0;" edge="1" parent="WIyWlLk6GJQsqaUBKTNV-1" target="o9_Wq7FEoAlSPozMiBwq-39" source="o9_Wq7FEoAlSPozMiBwq-45">
          <mxGeometry relative="1" as="geometry">
            <mxPoint x="849.9600000000002" y="190" as="sourcePoint" />
          </mxGeometry>
        </mxCell>
        <mxCell id="o9_Wq7FEoAlSPozMiBwq-37" value="" style="edgeStyle=orthogonalEdgeStyle;rounded=0;orthogonalLoop=1;jettySize=auto;html=1;exitX=0.5;exitY=1;exitDx=0;exitDy=0;" edge="1" parent="WIyWlLk6GJQsqaUBKTNV-1" source="o9_Wq7FEoAlSPozMiBwq-39" target="o9_Wq7FEoAlSPozMiBwq-41">
          <mxGeometry relative="1" as="geometry">
            <mxPoint x="947.536666666667" y="419.9763984674328" as="sourcePoint" />
          </mxGeometry>
        </mxCell>
        <mxCell id="o9_Wq7FEoAlSPozMiBwq-48" value="" style="edgeStyle=orthogonalEdgeStyle;rounded=0;orthogonalLoop=1;jettySize=auto;html=1;" edge="1" parent="WIyWlLk6GJQsqaUBKTNV-1" source="o9_Wq7FEoAlSPozMiBwq-39" target="o9_Wq7FEoAlSPozMiBwq-44">
          <mxGeometry relative="1" as="geometry" />
        </mxCell>
        <mxCell id="o9_Wq7FEoAlSPozMiBwq-39" value="&lt;div&gt;&amp;nbsp; пока j&amp;gt;=0 и кол-во &lt;br&gt;&lt;/div&gt;&lt;div&gt;&amp;nbsp;&amp;nbsp;&amp;nbsp;&amp;nbsp; гласных букв больше в строке, &lt;br&gt;&lt;/div&gt;&lt;div&gt;&amp;nbsp;&amp;nbsp;&amp;nbsp;&amp;nbsp;&amp;nbsp;&amp;nbsp; чем в x, и первая юуква троки идет раньше, чем первая буква строки х. &lt;/div&gt;" style="rhombus;whiteSpace=wrap;html=1;rounded=1;" vertex="1" parent="WIyWlLk6GJQsqaUBKTNV-1">
          <mxGeometry x="790" y="210" width="217.5" height="140" as="geometry" />
        </mxCell>
        <mxCell id="o9_Wq7FEoAlSPozMiBwq-40" value="" style="edgeStyle=orthogonalEdgeStyle;rounded=0;orthogonalLoop=1;jettySize=auto;html=1;" edge="1" parent="WIyWlLk6GJQsqaUBKTNV-1" source="o9_Wq7FEoAlSPozMiBwq-41" target="o9_Wq7FEoAlSPozMiBwq-42">
          <mxGeometry relative="1" as="geometry" />
        </mxCell>
        <mxCell id="o9_Wq7FEoAlSPozMiBwq-41" value="&lt;span style=&quot;color: rgb(36, 41, 47); font-family: ui-monospace, SFMono-Regular, &amp;quot;SF Mono&amp;quot;, Menlo, Consolas, &amp;quot;Liberation Mono&amp;quot;, monospace; font-size: 12px; font-style: normal; font-variant-ligatures: normal; font-variant-caps: normal; font-weight: 400; letter-spacing: normal; orphans: 2; text-align: start; text-indent: 0px; text-transform: none; widows: 2; word-spacing: 0px; -webkit-text-stroke-width: 0px; background-color: rgb(255, 255, 255); text-decoration-thickness: initial; text-decoration-style: initial; text-decoration-color: initial; float: none; display: inline !important;&quot;&gt;arr[j+&lt;/span&gt;&lt;span style=&quot;box-sizing: border-box; color: var(--color-prettylights-syntax-constant); font-family: ui-monospace, SFMono-Regular, &amp;quot;SF Mono&amp;quot;, Menlo, Consolas, &amp;quot;Liberation Mono&amp;quot;, monospace; font-size: 12px; font-style: normal; font-variant-ligatures: normal; font-variant-caps: normal; font-weight: 400; letter-spacing: normal; orphans: 2; text-align: start; text-indent: 0px; text-transform: none; widows: 2; word-spacing: 0px; -webkit-text-stroke-width: 0px; background-color: rgb(255, 255, 255); text-decoration-thickness: initial; text-decoration-style: initial; text-decoration-color: initial;&quot; class=&quot;pl-c1&quot;&gt;1&lt;/span&gt;&lt;span style=&quot;color: rgb(36, 41, 47); font-family: ui-monospace, SFMono-Regular, &amp;quot;SF Mono&amp;quot;, Menlo, Consolas, &amp;quot;Liberation Mono&amp;quot;, monospace; font-size: 12px; font-style: normal; font-variant-ligatures: normal; font-variant-caps: normal; font-weight: 400; letter-spacing: normal; orphans: 2; text-align: start; text-indent: 0px; text-transform: none; widows: 2; word-spacing: 0px; -webkit-text-stroke-width: 0px; background-color: rgb(255, 255, 255); text-decoration-thickness: initial; text-decoration-style: initial; text-decoration-color: initial; float: none; display: inline !important;&quot;&gt;]=arr[j]&lt;/span&gt;" style="shape=parallelogram;perimeter=parallelogramPerimeter;whiteSpace=wrap;html=1;fixedSize=1;rounded=1;" vertex="1" parent="WIyWlLk6GJQsqaUBKTNV-1">
          <mxGeometry x="828.7500000000001" y="360" width="140" height="60" as="geometry" />
        </mxCell>
        <mxCell id="o9_Wq7FEoAlSPozMiBwq-42" value="j = j -1" style="shape=parallelogram;perimeter=parallelogramPerimeter;whiteSpace=wrap;html=1;fixedSize=1;rounded=1;" vertex="1" parent="WIyWlLk6GJQsqaUBKTNV-1">
          <mxGeometry x="838.7500000000001" y="440" width="120" height="60" as="geometry" />
        </mxCell>
        <mxCell id="o9_Wq7FEoAlSPozMiBwq-47" value="" style="edgeStyle=orthogonalEdgeStyle;rounded=0;orthogonalLoop=1;jettySize=auto;html=1;" edge="1" parent="WIyWlLk6GJQsqaUBKTNV-1" source="o9_Wq7FEoAlSPozMiBwq-44" target="o9_Wq7FEoAlSPozMiBwq-29">
          <mxGeometry relative="1" as="geometry" />
        </mxCell>
        <mxCell id="o9_Wq7FEoAlSPozMiBwq-44" value="&lt;span style=&quot;color: rgb(36, 41, 47); font-family: ui-monospace, SFMono-Regular, &amp;quot;SF Mono&amp;quot;, Menlo, Consolas, &amp;quot;Liberation Mono&amp;quot;, monospace; font-size: 12px; font-style: normal; font-variant-ligatures: normal; font-variant-caps: normal; font-weight: 400; letter-spacing: normal; orphans: 2; text-align: start; text-indent: 0px; text-transform: none; widows: 2; word-spacing: 0px; -webkit-text-stroke-width: 0px; background-color: rgb(255, 255, 255); text-decoration-thickness: initial; text-decoration-style: initial; text-decoration-color: initial; float: none; display: inline !important;&quot;&gt;arr[j+&lt;/span&gt;&lt;span style=&quot;box-sizing: border-box; color: var(--color-prettylights-syntax-constant); font-family: ui-monospace, SFMono-Regular, &amp;quot;SF Mono&amp;quot;, Menlo, Consolas, &amp;quot;Liberation Mono&amp;quot;, monospace; font-size: 12px; font-style: normal; font-variant-ligatures: normal; font-variant-caps: normal; font-weight: 400; letter-spacing: normal; orphans: 2; text-align: start; text-indent: 0px; text-transform: none; widows: 2; word-spacing: 0px; -webkit-text-stroke-width: 0px; background-color: rgb(255, 255, 255); text-decoration-thickness: initial; text-decoration-style: initial; text-decoration-color: initial;&quot; class=&quot;pl-c1&quot;&gt;1&lt;/span&gt;&lt;span style=&quot;color: rgb(36, 41, 47); font-family: ui-monospace, SFMono-Regular, &amp;quot;SF Mono&amp;quot;, Menlo, Consolas, &amp;quot;Liberation Mono&amp;quot;, monospace; font-size: 12px; font-style: normal; font-variant-ligatures: normal; font-variant-caps: normal; font-weight: 400; letter-spacing: normal; orphans: 2; text-align: start; text-indent: 0px; text-transform: none; widows: 2; word-spacing: 0px; -webkit-text-stroke-width: 0px; background-color: rgb(255, 255, 255); text-decoration-thickness: initial; text-decoration-style: initial; text-decoration-color: initial; float: none; display: inline !important;&quot;&gt;]=x&lt;/span&gt;" style="shape=parallelogram;perimeter=parallelogramPerimeter;whiteSpace=wrap;html=1;fixedSize=1;rounded=1;" vertex="1" parent="WIyWlLk6GJQsqaUBKTNV-1">
          <mxGeometry x="670" y="250" width="110.66" height="60" as="geometry" />
        </mxCell>
        <mxCell id="o9_Wq7FEoAlSPozMiBwq-45" value="А" style="ellipse;whiteSpace=wrap;html=1;rounded=1;" vertex="1" parent="WIyWlLk6GJQsqaUBKTNV-1">
          <mxGeometry x="858.7500000000001" y="80" width="80" height="80" as="geometry" />
        </mxCell>
        <mxCell id="o9_Wq7FEoAlSPozMiBwq-46" value="" style="endArrow=classic;html=1;rounded=0;exitX=1;exitY=0.5;exitDx=0;exitDy=0;entryX=1;entryY=0.5;entryDx=0;entryDy=0;" edge="1" parent="WIyWlLk6GJQsqaUBKTNV-1" source="o9_Wq7FEoAlSPozMiBwq-42" target="o9_Wq7FEoAlSPozMiBwq-39">
          <mxGeometry width="50" height="50" relative="1" as="geometry">
            <mxPoint x="1013.12" y="470" as="sourcePoint" />
            <mxPoint x="1063.12" y="420" as="targetPoint" />
            <Array as="points">
              <mxPoint x="1010.62" y="470" />
            </Array>
          </mxGeometry>
        </mxCell>
        <mxCell id="o9_Wq7FEoAlSPozMiBwq-52" value="" style="edgeStyle=orthogonalEdgeStyle;rounded=0;orthogonalLoop=1;jettySize=auto;html=1;" edge="1" parent="WIyWlLk6GJQsqaUBKTNV-1" source="o9_Wq7FEoAlSPozMiBwq-49" target="o9_Wq7FEoAlSPozMiBwq-51">
          <mxGeometry relative="1" as="geometry" />
        </mxCell>
        <mxCell id="o9_Wq7FEoAlSPozMiBwq-49" value="выводим полученную строку" style="whiteSpace=wrap;html=1;rounded=1;" vertex="1" parent="WIyWlLk6GJQsqaUBKTNV-1">
          <mxGeometry x="140" y="350" width="120" height="60" as="geometry" />
        </mxCell>
        <mxCell id="o9_Wq7FEoAlSPozMiBwq-54" value="" style="edgeStyle=orthogonalEdgeStyle;rounded=0;orthogonalLoop=1;jettySize=auto;html=1;" edge="1" parent="WIyWlLk6GJQsqaUBKTNV-1" source="o9_Wq7FEoAlSPozMiBwq-51" target="o9_Wq7FEoAlSPozMiBwq-53">
          <mxGeometry relative="1" as="geometry" />
        </mxCell>
        <mxCell id="o9_Wq7FEoAlSPozMiBwq-51" value="выводим только те слова, в которых больше чем 2 буквы &quot;а&quot;" style="whiteSpace=wrap;html=1;rounded=1;" vertex="1" parent="WIyWlLk6GJQsqaUBKTNV-1">
          <mxGeometry x="140" y="430" width="120" height="60" as="geometry" />
        </mxCell>
        <mxCell id="o9_Wq7FEoAlSPozMiBwq-53" value="Конец" style="ellipse;whiteSpace=wrap;html=1;rounded=1;" vertex="1" parent="WIyWlLk6GJQsqaUBKTNV-1">
          <mxGeometry x="160" y="520" width="80" height="80" as="geometry" />
        </mxCell>
      </root>
    </mxGraphModel>
  </diagram>
</mxfile>
